<?xml version="1.0" encoding="utf-8"?>
<!-- Generator: Adobe Illustrator 18.0.0, SVG Export Plug-In . SVG Version: 6.00 Build 0)  -->
<!DOCTYPE svg PUBLIC "-//W3C//DTD SVG 1.1//EN" "http://www.w3.org/Graphics/SVG/1.1/DTD/svg11.dtd">
<svg version="1.1" id="Layer_1" xmlns="http://www.w3.org/2000/svg" xmlns:xlink="http://www.w3.org/1999/xlink" x="0px" y="0px"
	 viewBox="0 261.5 612 530.5" enable-background="new 0 261.5 612 530.5" xml:space="preserve">
<path id="Shape" fill="#272727" d="M10.2,373.8v204c0,56.3,45.7,102,102,102h20.4c11.2,0,20.4,9.1,20.4,20.4v81.6l147.9-98.6
	c3.3-2.3,7.3-3.5,11.2-3.5h187.7c56.3,0,102-45.7,102-102V373.8c0-56.3-45.7-102-102-102H112.2C55.8,271.8,10.2,317.4,10.2,373.8z"
	/>
<path id="Shape_1_" fill="#272727" d="M270.3,683.3L153,761.3v20.4l147.9-98.6c3.3-2.3,7.3-3.5,11.2-3.5h-30.6
	C277.6,679.8,273.6,681,270.3,683.3z"/>
<path id="Shape_2_" fill="#313131" d="M499.8,271.8h-30.6c56.3,0,102,45.7,102,102v204c0,27-10.8,53-29.9,72.1s-45.1,29.9-72.1,29.9
	h30.6c56.3,0,102-45.7,102-102v-204C601.8,317.4,556.2,271.8,499.8,271.8z"/>
<path id="Shape_3_" fill="#FFFFFF" d="M51,404.3c-5.6,0-10.2-4.5-10.2-10.2v-20.4c0-5.6,4.5-10.2,10.2-10.2s10.2,4.5,10.2,10.2v20.4
	C61.2,399.8,56.7,404.3,51,404.3z"/>
<path id="Shape_4_" fill="#FFFFFF" d="M51,598.1c-5.6,0-10.2-4.5-10.2-10.2v-153c0-5.6,4.5-10.2,10.2-10.2s10.2,4.5,10.2,10.2v153
	C61.2,593.5,56.7,598.1,51,598.1z"/>
<circle id="Oval" fill="#272727" cx="224.4" cy="475.8" r="40.8"/>
<path id="Shape_5_" fill="#313131" d="M224.4,435c-5.3,0-10.4,1.1-15.3,3.1c15.4,6.2,25.5,21.2,25.5,37.8s-10,31.6-25.5,37.8
	c15.3,6.2,32.8,2.6,44.3-9.1c11.6-11.7,15.1-29.3,8.6-44.5C255.8,444.8,240.9,435,224.4,435L224.4,435z"/>
<circle id="Oval_1_" fill="#272727" cx="387.6" cy="373.7" r="40.8"/>
<path id="Shape_6_" fill="#313131" d="M387.6,332.9c-5.3,0-10.4,1.1-15.3,3.1c15.4,6.2,25.5,21.2,25.5,37.8
	c0,16.6-10,31.6-25.5,37.8c15.3,6.2,32.8,2.6,44.3-9.1c11.6-11.7,15.1-29.3,8.6-44.5C418.7,342.8,404,332.8,387.6,332.9z"/>
<circle id="Oval_2_" fill="#272727" cx="387.6" cy="577.8" r="40.8"/>
<path id="Shape_7_" fill="#313131" d="M387.6,537c-5.3,0-10.4,1.1-15.3,3.1c15.4,6.2,25.5,21.2,25.5,37.8s-10,31.6-25.5,37.8
	c15.3,6.2,32.8,2.6,44.3-9.1c11.6-11.7,15.1-29.3,8.6-44.5S404,537,387.6,537L387.6,537z"/>
<g id="color" transform="translate(1 1)">
	<path id="Shape_8_" fill="#313131" d="M111.2,678.8h20.4c11.2,0,20.4,9.1,20.4,20.4v81.6l30.6-20.4v-61.2
		c0-11.2-9.1-20.4-20.4-20.4h-20.4c-56.3,0-102-45.7-102-102v-204c0-56.3,45.7-102,102-102h-30.6c-56.4,0-102,45.7-102,102v204
		C9.2,633,54.8,678.8,111.2,678.8z"/>
</g>
<g>
	<path id="Shape_9_" fill="#FFFDFD" d="M10.4,547.1c-5.6,0-10.3-4.5-10.3-10.2s4.6-10.2,10.2-10.2h0.1c3.6,0,7.1,1.9,8.8,5.1
		c1.8,3.1,1.8,7.1,0,10.2C17.4,545.2,14.1,547.1,10.4,547.1z"/>
	<path id="Shape_10_" fill="#FFFDFD" d="M499.8,261.5H112.2C50.3,261.6,0.1,311.8,0,373.8v122.4c0,5.6,4.5,10.2,10.2,10.2
		s10.2-4.5,10.2-10.2V373.8c0.1-50.7,41.1-91.7,91.8-91.8h387.6c50.7,0.1,91.7,41.1,91.8,91.8v204c-0.1,50.7-41.1,91.7-91.8,91.8
		H312.1c-6.1,0-12,1.8-17,5.1l-132,88.1v-62.5c0-16.9-13.7-30.6-30.6-30.6h-20.3c-50.7-0.1-91.7-41.1-91.8-91.8
		c0-5.6-4.5-10.2-10.2-10.2S0,572.1,0,577.8C0.1,639.8,50.3,690,112.2,690h20.4c5.6,0,10.2,4.5,10.2,10.2v81.6c0,3.7,2,7.2,5.4,9
		s7.3,1.6,10.5-0.5l147.9-98.6c1.7-1.1,3.6-1.7,5.6-1.7h187.7c61.9-0.1,112.1-50.3,112.2-112.3v-204
		C611.9,311.8,561.7,261.6,499.8,261.5z"/>
	<path id="Shape_11_" fill="#FFFDFD" d="M224.4,424.8c-23.3-0.1-43.6,15.7-49.5,38.1c-5.9,22.4,4.3,46.1,24.6,57.5
		c20.3,11.2,45.8,7.4,61.8-9.6l78.8,49.1c-2.2,5.6-3.3,11.7-3.3,17.7c-0.1,24.6,17.2,45.9,41.4,50.7c24.2,4.8,48.3-8.2,57.5-31.2
		c9.2-22.8,1-49-19.8-62.4c-20.8-13.4-47.9-10-64.9,7.8l-78.8-49.1c4.5-11.4,4.5-24.1,0-35.5l78.8-49.1c18.4,19.6,48.8,22.1,70,5.7
		c21.2-16.4,26.8-46.4,12.6-69.2S390.1,314,365.9,326s-35.4,40.2-25.8,65.4l-78.7,49.2C251.7,430.5,238.3,424.8,224.4,424.8
		L224.4,424.8z M387.6,547.1c16.9,0,30.6,13.7,30.6,30.6c0,16.9-13.7,30.6-30.6,30.6S357,594.6,357,577.8
		C357,560.8,370.7,547.1,387.6,547.1z M387.6,343.1c16.9,0,30.6,13.7,30.6,30.6s-13.7,30.6-30.6,30.6S357,390.6,357,373.8
		C357,356.8,370.7,343.1,387.6,343.1z M224.4,506.3c-12.4,0-23.5-7.4-28.3-18.9s-2.2-24.6,6.6-33.3c8.8-8.7,21.9-11.4,33.3-6.6
		c11.5,4.8,18.9,15.9,18.9,28.3C255,492.6,241.3,506.3,224.4,506.3z"/>
</g>
</svg>
