<?xml version="1.0" encoding="utf-8"?>
<!-- Generator: Adobe Illustrator 18.0.0, SVG Export Plug-In . SVG Version: 6.00 Build 0)  -->
<!DOCTYPE svg PUBLIC "-//W3C//DTD SVG 1.1//EN" "http://www.w3.org/Graphics/SVG/1.1/DTD/svg11.dtd">
<svg version="1.1" id="Layer_1" xmlns="http://www.w3.org/2000/svg" xmlns:xlink="http://www.w3.org/1999/xlink" x="0px" y="0px"
	 viewBox="0 0 50 50" enable-background="new 0 0 50 50" xml:space="preserve">
<path fill="#FFFFFF" d="M46,34.2c0.1,0.3,0,0.7-0.2,0.9l-5.2,6.7c-0.4,0.5-1.1,0.6-1.6,0.2c-1.2-0.9-2.3-1.8-3.4-2.7l-5.8,5.9
	l0.2,1.3c0,0.2,0,0.4-0.1,0.5c-0.1,0.1-0.3,0.2-0.5,0.2l-1.2,0l0.1,1.1c0,0.2-0.1,0.4-0.2,0.5c-0.1,0.1-0.3,0.2-0.5,0.2l-1.4-0.2
	l-1.1,1.1C25,50,24.8,50,24.6,50l-2.1-0.4c-0.2,0-0.4-0.2-0.5-0.5L21.6,47c0-0.2,0-0.4,0.2-0.6l1-1H5.6c-0.3,0-0.6-0.3-0.6-0.6v-5
	c0-0.4,0-0.8,0.1-1.3c0-0.1,0-0.1,0.1-0.2c0.5-1.9,1.9-3.4,3.8-4l6.9-2.3v-3.2c-2.4-1.4-4.1-3.9-4.7-6.7l-0.4-1.4
	c-1.6-0.5-2.5-2.1-2.1-3.7c0.2-0.8,0.8-1.5,1.7-1.8v-4.6C10.4,4.8,15.1,0,21,0c5.8,0,10.6,4.8,10.6,10.6v4.6
	c0.8,0.3,1.5,0.9,1.7,1.8c0.4,1.6-0.5,3.2-2.1,3.7l-0.4,1.4c-0.5,2.8-2.2,5.2-4.7,6.7v3.2l4.1,1.4c-0.2-0.3-0.4-0.6-0.7-0.9
	c-0.4-0.5-0.3-1.3,0.2-1.7l6.7-5.2c0.3-0.2,0.6-0.3,0.9-0.2c0.3,0,0.6,0.2,0.8,0.5c0.6,0.8,2.1,2.9,3.5,4.3c1.3,1.3,3,2.6,4,3.2l0,0
	C45.8,33.6,45.9,33.9,46,34.2z M30.3,10.6c0-5.2-4.2-9.4-9.3-9.4s-9.3,4.2-9.3,9.4v4.7c0.2,0,0.4,0,0.5-0.2c0.1-0.1,0.2-0.3,0.3-0.5
	l0.2-3.6c0-0.2,0.1-0.3,0.2-0.4c0.1-0.1,0.3-0.2,0.4-0.2c1.7,0.1,3.4,0,5.1-0.3C20.9,9.8,24.6,9,27.2,7c0.2-0.1,0.4-0.2,0.6-0.1
	C28,7,28.1,7.2,28.1,7.4c0,0.2-0.1,0.4-0.2,0.6c-1.3,1-2.9,1.8-4.7,2.4c1.1,1,3.4,2.6,7.1,3.1V10.6z M30.3,14.6
	c-4.9-0.5-7.6-3-8.5-3.9c-1.1,0.3-2.2,0.5-3.4,0.6c-0.1,0-0.2,0-0.2,0c4.5,3.3,10.2,3.7,12.1,3.7V14.6z M29.5,21.9
	C29.5,21.9,29.5,21.9,29.5,21.9l0.5-1.8c0-0.3,0.2-0.5,0.5-0.5c0.5-0.1,1-0.4,1.3-0.8c0.3-0.4,0.4-1,0.3-1.5c-0.1-0.5-0.5-0.9-1-1
	c0,0,0,0,0,0c-0.1,0-2.2,0.1-5.1-0.5c-2.6-0.5-6.3-1.7-9.3-4.3c-1.2,0.1-2.2,0.1-2.7,0.1l-0.1,3c0,0.7-0.4,1.3-1,1.6
	c-0.6,0.3-1.3,0.4-1.8,0.1c-0.4,0.1-0.8,0.5-0.9,0.9c-0.1,0.5,0,1.1,0.3,1.5c0.3,0.4,0.7,0.7,1.3,0.8c0.3,0,0.5,0.2,0.5,0.5l0.5,1.7
	c0,0,0,0,0,0.1C13.2,26,16.8,29,21,29C25.1,29,28.7,26,29.5,21.9z M17.1,29.4v2.7c2.4,1.2,5.2,1.2,7.6,0v-2.7
	c-1.2,0.5-2.5,0.8-3.8,0.8C19.7,30.2,18.4,30,17.1,29.4z M25.5,33.2c-2.8,1.4-6.2,1.4-9,0l-7.1,2.3c-1.5,0.5-2.6,1.7-3,3.1
	c0,0.1,0,0.1,0,0.2c-0.1,0.3-0.1,0.7-0.1,1v4.4l17.7,0l8.2-8.2c-0.2-0.2-0.4-0.5-0.6-0.7L25.5,33.2z M40.7,31.1
	c-1.4-1.4-2.8-3.4-3.6-4.5l-6.7,5.2c0.9,1.3,2,2.5,3,3.7c0.2,0.2,0.2,0.6,0,0.8L22.8,47l0.3,1.4l1.4,0.3l1-1
	c0.1-0.1,0.3-0.2,0.5-0.2l1,0.1l-0.1-1c0-0.2,0-0.3,0.2-0.5c0.1-0.1,0.3-0.2,0.5-0.2l1.1,0l-0.1-0.9c0-0.2,0-0.4,0.2-0.5l6.4-6.5
	c0.2-0.2,0.6-0.2,0.8,0c1.2,1.1,2.4,2.1,3.7,3l5.2-6.7C43.8,33.8,42,32.5,40.7,31.1z M36.4,34.8l-1.9-3.6c-0.1-0.3-0.1-0.6,0.2-0.8
	l1.5-1.2c0.3-0.2,0.6-0.2,0.8,0.1l1.1,1.3c0.8,0.9,1.7,1.8,2.6,2.6l1.3,1.1c0.2,0.2,0.3,0.6,0.1,0.8L41,36.7
	c-0.2,0.2-0.5,0.3-0.8,0.2L36.7,35C36.6,35,36.5,34.9,36.4,34.8z M40.4,35.6l0.5-0.7L40,34.2c-1-0.9-1.9-1.8-2.7-2.8l-0.7-0.9
	l-0.7,0.5l1.5,3L40.4,35.6z"/>
</svg>
