<?xml version="1.0" encoding="utf-8"?>
<!-- Generator: Adobe Illustrator 18.0.0, SVG Export Plug-In . SVG Version: 6.00 Build 0)  -->
<!DOCTYPE svg PUBLIC "-//W3C//DTD SVG 1.1//EN" "http://www.w3.org/Graphics/SVG/1.1/DTD/svg11.dtd">
<svg version="1.1" id="Layer_1" xmlns="http://www.w3.org/2000/svg" xmlns:xlink="http://www.w3.org/1999/xlink" x="0px" y="0px"
	 viewBox="0 0 50 50" enable-background="new 0 0 50 50" xml:space="preserve">
<path fill="#FFFFFF" d="M49.1,27.2c-9.4,11.2-8.8,10.5-8.9,10.6c-1.7,1.6-3.8,2.5-6.1,2.5h-13c-0.8,0-1.5,0.3-2,0.8l-1,1
	c0.4,1,0.1,2.2-0.7,3l-4.7,4.7c-0.4,0.4-1,0.4-1.4,0l-11-11c-0.4-0.4-0.4-1,0-1.4l4.6-4.7c0.7-0.7,1.7-1,2.6-0.8
	c2.2-4.1,6.3-6.2,11-6.2c1.7,0,3.3,0.3,4.9,1h10.9c1.2,0,2.3,0.6,3,1.5l5.8-5.9c1.4-1.6,3.8-1.8,5.5-0.4
	C50.3,23,50.5,25.5,49.1,27.2z M7.5,33.9c-0.4-0.2-0.9-0.2-1.2,0.1l-4,4l9.6,9.7l4-4c0.4-0.4,0.4-1,0-1.4C7.2,33.5,7.7,34,7.5,33.9z
	 M47.4,23.1c-0.8-0.7-2.1-0.6-2.8,0.2c0,0-0.8,0.8-6.4,6.6c0,0.2,0,0.3,0,0.5c0,2.2-1.8,3.9-3.9,3.9h-8c-0.5,0-1-0.4-1-1
	c0-0.5,0.4-1,1-1h8c1.1,0,2-0.9,2-2c0-1.1-0.9-2-2-2H23.2c-0.1,0-0.3,0-0.4-0.1c-1.4-0.6-2.8-0.9-4.3-0.9c-4.2,0-7.5,1.9-9.3,5.3
	l7.7,7.6l0.8-0.8c0.9-0.9,2.1-1.4,3.4-1.4h13c1.8,0,3.5-0.7,4.7-1.9l8.8-10.5C48.3,25.1,48.2,23.8,47.4,23.1z M21.6,33.9
	c-0.4-0.4-0.4-1,0-1.4c0.4-0.4,1-0.4,1.4,0c0.4,0.4,0.4,1,0,1.4C22.6,34.3,22,34.3,21.6,33.9z M29.1,21.5c-5.9,0-10.7-4.8-10.7-10.7
	C18.4,4.8,23.2,0,29.1,0C35,0,39.8,4.8,39.8,10.7C39.8,16.7,35,21.5,29.1,21.5z M29.1,2c-4.8,0-8.8,3.9-8.8,8.8s3.9,8.8,8.8,8.8
	c4.8,0,8.8-3.9,8.8-8.8S33.9,2,29.1,2z M28.9,9.8c1.6,0,2.9,1.3,2.9,2.9c0,1.3-0.8,2.4-2,2.8v1.1c0,0.5-0.4,1-1,1s-1-0.4-1-1v-1.1
	c-0.7-0.2-1.3-0.7-1.8-1.3c-0.3-0.4-0.3-1,0.1-1.4c0.4-0.3,1-0.3,1.4,0.1c0.4,0.5,0.9,0.7,1.3,0.7c0.5,0,1-0.4,1-1c0-0.5-0.4-1-1-1
	c-1.6,0-2.9-1.3-2.9-2.9c0-1.3,0.8-2.4,2-2.8V4.9c0-0.5,0.4-1,1-1s1,0.4,1,1V6c0.4,0.1,0.9,0.4,1.4,0.9c0.4,0.4,0.4,1,0,1.4
	c-0.4,0.4-1,0.4-1.4,0c-0.3-0.3-0.7-0.5-1.1-0.5c-0.5,0-1,0.4-1,1S28.4,9.8,28.9,9.8z"/>
</svg>
