<?xml version="1.0" encoding="utf-8"?>
<!-- Generator: Adobe Illustrator 18.0.0, SVG Export Plug-In . SVG Version: 6.00 Build 0)  -->
<!DOCTYPE svg PUBLIC "-//W3C//DTD SVG 1.1//EN" "http://www.w3.org/Graphics/SVG/1.1/DTD/svg11.dtd">
<svg version="1.1" id="Layer_1" xmlns="http://www.w3.org/2000/svg" xmlns:xlink="http://www.w3.org/1999/xlink" x="0px" y="0px"
	 viewBox="0 0 50 50" enable-background="new 0 0 50 50" xml:space="preserve">
<path fill="#FFFFFF" d="M40.8,38.5H25.5c-0.2,0-0.3,0-0.5,0.1L13,46.9c-0.3,0.2-0.6,0.2-0.9,0s-0.4-0.4-0.4-0.7v-6.8
	c0-0.5-0.4-0.8-0.8-0.8H9.2c-5.1,0-9.2-4.2-9.2-9.3V12.3C0,7.2,4.1,3,9.2,3h31.7c5.1,0,9.2,4.2,9.2,9.3v16.9
	C50,34.4,45.9,38.5,40.8,38.5z M48.3,12.3c0-4.2-3.4-7.6-7.5-7.6H9.2c-4.1,0-7.5,3.4-7.5,7.6v16.9c0,4.2,3.4,7.6,7.5,7.6h1.7
	c1.4,0,2.5,1.1,2.5,2.5v5.2l10.8-7.3c0.4-0.3,0.9-0.4,1.4-0.4h15.3c4.1,0,7.5-3.4,7.5-7.6V12.3z M34,25.7c1.7,1.1,2.4,3.3,1.6,5.2
	c-0.8,1.9-2.7,3-4.7,2.6c-2-0.4-3.4-2.2-3.4-4.2c0-0.5,0.1-1,0.3-1.5l-6.4-4.1c-1.2,1.3-3,1.7-4.6,1s-2.6-2.2-2.6-3.9s1-3.3,2.6-3.9
	c1.6-0.6,3.4-0.2,4.6,1l6.4-4.1c-0.2-0.5-0.3-1-0.3-1.5c0-2.3,1.9-4.2,4.2-4.2c2.3,0,4.2,1.9,4.2,4.2c0,2.3-1.9,4.2-4.2,4.2
	c-1.1,0-2.2-0.5-3-1.3l-6.4,4.1c0.4,0.9,0.4,2,0,2.9l6.4,4.1C30,24.8,32.3,24.6,34,25.7z M31.7,31.8c1.4,0,2.5-1.1,2.5-2.5
	c0-1.4-1.1-2.5-2.5-2.5c-1.4,0-2.5,1.1-2.5,2.5C29.2,30.6,30.3,31.8,31.7,31.8z M19.3,18.4c-0.9-0.4-2-0.2-2.7,0.5s-0.9,1.8-0.5,2.8
	c0.4,0.9,1.3,1.6,2.3,1.6c1.4,0,2.5-1.1,2.5-2.5C20.8,19.7,20.2,18.8,19.3,18.4z M31.7,14.8c1.4,0,2.5-1.1,2.5-2.5S33,9.8,31.7,9.8
	c-1.4,0-2.5,1.1-2.5,2.5S30.3,14.8,31.7,14.8z M4.2,30.9c-0.5,0-0.8-0.4-0.8-0.8V17.4c0-0.5,0.4-0.8,0.8-0.8c0.5,0,0.8,0.4,0.8,0.8
	v12.7C5,30.5,4.6,30.9,4.2,30.9z M4.2,14.8c-0.5,0-0.8-0.4-0.8-0.8v-1.7c0-0.5,0.4-0.8,0.8-0.8c0.5,0,0.8,0.4,0.8,0.8V14
	C5,14.5,4.6,14.8,4.2,14.8z"/>
</svg>
